<?xml version="1.0" encoding="UTF-8" standalone="no"?>
<!DOCTYPE svg PUBLIC "-//W3C//DTD SVG 1.1//EN"
 "http://www.w3.org/Graphics/SVG/1.1/DTD/svg11.dtd">
<!-- Generated by graphviz version 2.40.1 (20161225.0304)
 -->
<!-- Title: dependencies Pages: 1 -->
<svg width="1686pt" height="284pt"
 viewBox="0.00 0.00 1686.00 284.00" xmlns="http://www.w3.org/2000/svg" xmlns:xlink="http://www.w3.org/1999/xlink">
<g id="graph0" class="graph" transform="scale(1 1) rotate(0) translate(4 280)">
<title>dependencies</title>
<polygon fill="#ffffff" stroke="transparent" points="-4,4 -4,-280 1682,-280 1682,4 -4,4"/>
<text text-anchor="start" x="818.0091" y="-42.4" font-family="sans-serif" font-weight="bold" font-size="14.00" fill="#000000">Legend</text>
<polygon fill="#ffffb3" stroke="transparent" points="605,-10 605,-30 625,-30 625,-10 605,-10"/>
<text text-anchor="start" x="628.629" y="-15.4" font-family="sans-serif" font-size="14.00" fill="#000000"> &#160;Declarations</text>
<polygon fill="#8dd3c7" stroke="transparent" points="718,-10 718,-30 738,-30 738,-10 718,-10"/>
<text text-anchor="start" x="741.7251" y="-15.4" font-family="sans-serif" font-size="14.00" fill="#000000"> &#160;Module</text>
<polygon fill="#80b1d3" stroke="transparent" points="804,-10 804,-30 824,-30 824,-10 804,-10"/>
<text text-anchor="start" x="827.7812" y="-15.4" font-family="sans-serif" font-size="14.00" fill="#000000"> &#160;Bootstrap</text>
<polygon fill="#fdb462" stroke="transparent" points="901,-10 901,-30 921,-30 921,-10 901,-10"/>
<text text-anchor="start" x="924.6732" y="-15.4" font-family="sans-serif" font-size="14.00" fill="#000000"> &#160;Providers</text>
<polygon fill="#fb8072" stroke="transparent" points="997,-10 997,-30 1017,-30 1017,-10 997,-10"/>
<text text-anchor="start" x="1020.7258" y="-15.4" font-family="sans-serif" font-size="14.00" fill="#000000"> &#160;Exports</text>
<g id="clust1" class="cluster">
<title>cluster_AppModule</title>
<polygon fill="none" stroke="#000000" stroke-dasharray="1,5" points="8,-70 8,-268 1670,-268 1670,-70 8,-70"/>
</g>
<g id="clust2" class="cluster">
<title>cluster_AppModule_declarations</title>
<polygon fill="none" stroke="#000000" points="293,-78 293,-130 1662,-130 1662,-78 293,-78"/>
</g>
<g id="clust12" class="cluster">
<title>cluster_AppModule_imports</title>
<polygon fill="none" stroke="#000000" points="16,-78 16,-130 285,-130 285,-78 16,-78"/>
</g>
<g id="clust13" class="cluster">
<title>cluster_AppModule_exports</title>
<polygon fill="none" stroke="#000000" points="713,-208 713,-260 803,-260 803,-208 713,-208"/>
</g>
<g id="clust14" class="cluster">
<title>cluster_AppModule_bootstrap</title>
<polygon fill="none" stroke="#000000" points="811,-208 811,-260 935,-260 935,-208 811,-208"/>
</g>
<!-- AppComponent -->
<g id="node1" class="node">
<title>AppComponent</title>
<polygon fill="#ffffb3" stroke="#000000" points="1653.9399,-122 1548.0601,-122 1548.0601,-86 1653.9399,-86 1653.9399,-122"/>
<text text-anchor="middle" x="1601" y="-99.8" font-family="Times,serif" font-size="14.00" fill="#000000">AppComponent</text>
</g>
<!-- AppModule -->
<g id="node10" class="node">
<title>AppModule</title>
<polygon fill="#8dd3c7" stroke="#000000" points="856.6571,-187 853.6571,-191 832.6571,-191 829.6571,-187 773.3429,-187 773.3429,-151 856.6571,-151 856.6571,-187"/>
<text text-anchor="middle" x="815" y="-164.8" font-family="Times,serif" font-size="14.00" fill="#000000">AppModule</text>
</g>
<!-- AppComponent&#45;&gt;AppModule -->
<g id="edge1" class="edge">
<title>AppComponent&#45;&gt;AppModule</title>
<path fill="none" stroke="#000000" d="M1601,-122.2479C1601,-145.0179 1601,-181 1601,-181 1601,-181 866.7038,-181 866.7038,-181"/>
<polygon fill="#000000" stroke="#000000" points="866.7039,-177.5001 856.7038,-181 866.7038,-184.5001 866.7039,-177.5001"/>
</g>
<!-- ConfirmationDialogComponent -->
<g id="node2" class="node">
<title>ConfirmationDialogComponent</title>
<polygon fill="#ffffb3" stroke="#000000" points="1530.3696,-122 1335.6304,-122 1335.6304,-86 1530.3696,-86 1530.3696,-122"/>
<text text-anchor="middle" x="1433" y="-99.8" font-family="Times,serif" font-size="14.00" fill="#000000">ConfirmationDialogComponent</text>
</g>
<!-- ConfirmationDialogComponent&#45;&gt;AppModule -->
<g id="edge2" class="edge">
<title>ConfirmationDialogComponent&#45;&gt;AppModule</title>
<path fill="none" stroke="#000000" d="M1433,-122.2843C1433,-143.3211 1433,-175 1433,-175 1433,-175 866.9918,-175 866.9918,-175"/>
<polygon fill="#000000" stroke="#000000" points="866.9918,-171.5001 856.9918,-175 866.9918,-178.5001 866.9918,-171.5001"/>
</g>
<!-- FaqCreateComponent -->
<g id="node3" class="node">
<title>FaqCreateComponent</title>
<polygon fill="#ffffb3" stroke="#000000" points="1317.3613,-122 1178.6387,-122 1178.6387,-86 1317.3613,-86 1317.3613,-122"/>
<text text-anchor="middle" x="1248" y="-99.8" font-family="Times,serif" font-size="14.00" fill="#000000">FaqCreateComponent</text>
</g>
<!-- FaqCreateComponent&#45;&gt;AppModule -->
<g id="edge3" class="edge">
<title>FaqCreateComponent&#45;&gt;AppModule</title>
<path fill="none" stroke="#000000" d="M1248,-122.1061C1248,-141.3391 1248,-169 1248,-169 1248,-169 866.9113,-169 866.9113,-169"/>
<polygon fill="#000000" stroke="#000000" points="866.9113,-165.5001 856.9113,-169 866.9113,-172.5001 866.9113,-165.5001"/>
</g>
<!-- FaqListComponent -->
<g id="node4" class="node">
<title>FaqListComponent</title>
<polygon fill="#ffffb3" stroke="#000000" points="1161.108,-122 1036.892,-122 1036.892,-86 1161.108,-86 1161.108,-122"/>
<text text-anchor="middle" x="1099" y="-99.8" font-family="Times,serif" font-size="14.00" fill="#000000">FaqListComponent</text>
</g>
<!-- FaqListComponent&#45;&gt;AppModule -->
<g id="edge4" class="edge">
<title>FaqListComponent&#45;&gt;AppModule</title>
<path fill="none" stroke="#000000" d="M1099,-122.0225C1099,-139.3734 1099,-163 1099,-163 1099,-163 866.9052,-163 866.9052,-163"/>
<polygon fill="#000000" stroke="#000000" points="866.9052,-159.5001 856.9052,-163 866.9051,-166.5001 866.9052,-159.5001"/>
</g>
<!-- FaqSolutionComponent -->
<g id="node5" class="node">
<title>FaqSolutionComponent</title>
<polygon fill="#ffffb3" stroke="#000000" points="1018.7842,-122 869.2158,-122 869.2158,-86 1018.7842,-86 1018.7842,-122"/>
<text text-anchor="middle" x="944" y="-99.8" font-family="Times,serif" font-size="14.00" fill="#000000">FaqSolutionComponent</text>
</g>
<!-- FaqSolutionComponent&#45;&gt;AppModule -->
<g id="edge5" class="edge">
<title>FaqSolutionComponent&#45;&gt;AppModule</title>
<path fill="none" stroke="#000000" d="M898.2888,-122.2396C898.2888,-137.5706 898.2888,-157 898.2888,-157 898.2888,-157 867.1324,-157 867.1324,-157"/>
<polygon fill="#000000" stroke="#000000" points="867.1324,-153.5001 857.1324,-157 867.1324,-160.5001 867.1324,-153.5001"/>
</g>
<!-- FilterPipe -->
<g id="node6" class="node">
<title>FilterPipe</title>
<polygon fill="#ffffb3" stroke="#000000" points="850.7177,-122 779.2823,-122 779.2823,-86 850.7177,-86 850.7177,-122"/>
<text text-anchor="middle" x="815" y="-99.8" font-family="Times,serif" font-size="14.00" fill="#000000">FilterPipe</text>
</g>
<!-- FilterPipe&#45;&gt;AppModule -->
<g id="edge6" class="edge">
<title>FilterPipe&#45;&gt;AppModule</title>
<path fill="none" stroke="#000000" d="M815,-122.1061C815,-122.1061 815,-140.991 815,-140.991"/>
<polygon fill="#000000" stroke="#000000" points="811.5001,-140.9909 815,-150.991 818.5001,-140.991 811.5001,-140.9909"/>
</g>
<!-- HomeComponent -->
<g id="node7" class="node">
<title>HomeComponent</title>
<polygon fill="#ffffb3" stroke="#000000" points="761.5451,-122 646.4549,-122 646.4549,-86 761.5451,-86 761.5451,-122"/>
<text text-anchor="middle" x="704" y="-99.8" font-family="Times,serif" font-size="14.00" fill="#000000">HomeComponent</text>
</g>
<!-- HomeComponent&#45;&gt;AppModule -->
<g id="edge7" class="edge">
<title>HomeComponent&#45;&gt;AppModule</title>
<path fill="none" stroke="#000000" d="M741.2067,-122.2396C741.2067,-137.5706 741.2067,-157 741.2067,-157 741.2067,-157 762.93,-157 762.93,-157"/>
<polygon fill="#000000" stroke="#000000" points="762.93,-160.5001 772.93,-157 762.9299,-153.5001 762.93,-160.5001"/>
</g>
<!-- MachineInfoDialogComponent -->
<g id="node8" class="node">
<title>MachineInfoDialogComponent</title>
<polygon fill="#ffffb3" stroke="#000000" points="627.7352,-122 436.2648,-122 436.2648,-86 627.7352,-86 627.7352,-122"/>
<text text-anchor="middle" x="532" y="-99.8" font-family="Times,serif" font-size="14.00" fill="#000000">MachineInfoDialogComponent</text>
</g>
<!-- MachineInfoDialogComponent&#45;&gt;AppModule -->
<g id="edge8" class="edge">
<title>MachineInfoDialogComponent&#45;&gt;AppModule</title>
<path fill="none" stroke="#000000" d="M532,-122.0225C532,-139.3734 532,-163 532,-163 532,-163 763.2424,-163 763.2424,-163"/>
<polygon fill="#000000" stroke="#000000" points="763.2424,-166.5001 773.2424,-163 763.2423,-159.5001 763.2424,-166.5001"/>
</g>
<!-- TicketComponent -->
<g id="node9" class="node">
<title>TicketComponent</title>
<polygon fill="#ffffb3" stroke="#000000" points="418.5954,-122 301.4046,-122 301.4046,-86 418.5954,-86 418.5954,-122"/>
<text text-anchor="middle" x="360" y="-99.8" font-family="Times,serif" font-size="14.00" fill="#000000">TicketComponent</text>
</g>
<!-- TicketComponent&#45;&gt;AppModule -->
<g id="edge9" class="edge">
<title>TicketComponent&#45;&gt;AppModule</title>
<path fill="none" stroke="#000000" d="M360,-122.1061C360,-141.3391 360,-169 360,-169 360,-169 763.0103,-169 763.0103,-169"/>
<polygon fill="#000000" stroke="#000000" points="763.0103,-172.5001 773.0103,-169 763.0102,-165.5001 763.0103,-172.5001"/>
</g>
<!-- FilterPipe  -->
<g id="node13" class="node">
<title>FilterPipe </title>
<polygon fill="#fb8072" stroke="#000000" points="795.2179,-252 720.7821,-252 720.7821,-216 795.2179,-216 795.2179,-252"/>
<text text-anchor="middle" x="758" y="-229.8" font-family="Times,serif" font-size="14.00" fill="#000000">FilterPipe </text>
</g>
<!-- AppModule&#45;&gt;FilterPipe  -->
<g id="edge12" class="edge">
<title>AppModule&#45;&gt;FilterPipe </title>
<path fill="none" stroke="#000000" stroke-dasharray="5,2" d="M784.2652,-187.1061C784.2652,-187.1061 784.2652,-205.991 784.2652,-205.991"/>
<polygon fill="#000000" stroke="#000000" points="780.7653,-205.9909 784.2652,-215.991 787.7653,-205.991 780.7653,-205.9909"/>
</g>
<!-- AppComponent  -->
<g id="node14" class="node">
<title>AppComponent </title>
<polygon fill="#80b1d3" stroke="#000000" points="927.439,-252 818.561,-252 818.561,-216 927.439,-216 927.439,-252"/>
<text text-anchor="middle" x="873" y="-229.8" font-family="Times,serif" font-size="14.00" fill="#000000">AppComponent </text>
</g>
<!-- AppModule&#45;&gt;AppComponent  -->
<g id="edge13" class="edge">
<title>AppModule&#45;&gt;AppComponent </title>
<path fill="none" stroke="#000000" stroke-dasharray="1,5" d="M837.6794,-187.1061C837.6794,-187.1061 837.6794,-205.991 837.6794,-205.991"/>
<polygon fill="#000000" stroke="#000000" points="834.1794,-205.9909 837.6794,-215.991 841.1794,-205.991 834.1794,-205.9909"/>
</g>
<!-- AppRoutingModule -->
<g id="node11" class="node">
<title>AppRoutingModule</title>
<polygon fill="#8dd3c7" stroke="#000000" points="277.2744,-122 274.2744,-126 253.2744,-126 250.2744,-122 148.7256,-122 148.7256,-86 277.2744,-86 277.2744,-122"/>
<text text-anchor="middle" x="213" y="-99.8" font-family="Times,serif" font-size="14.00" fill="#000000">AppRoutingModule</text>
</g>
<!-- AppRoutingModule&#45;&gt;AppModule -->
<g id="edge10" class="edge">
<title>AppRoutingModule&#45;&gt;AppModule</title>
<path fill="none" stroke="#000000" d="M213,-122.2843C213,-143.3211 213,-175 213,-175 213,-175 763.1465,-175 763.1465,-175"/>
<polygon fill="#000000" stroke="#000000" points="763.1465,-178.5001 773.1465,-175 763.1464,-171.5001 763.1465,-178.5001"/>
</g>
<!-- MaterialModule -->
<g id="node12" class="node">
<title>MaterialModule</title>
<polygon fill="#8dd3c7" stroke="#000000" points="130.4706,-122 127.4706,-126 106.4706,-126 103.4706,-122 23.5294,-122 23.5294,-86 130.4706,-86 130.4706,-122"/>
<text text-anchor="middle" x="77" y="-99.8" font-family="Times,serif" font-size="14.00" fill="#000000">MaterialModule</text>
</g>
<!-- MaterialModule&#45;&gt;AppModule -->
<g id="edge11" class="edge">
<title>MaterialModule&#45;&gt;AppModule</title>
<path fill="none" stroke="#000000" d="M77,-122.2479C77,-145.0179 77,-181 77,-181 77,-181 763.2074,-181 763.2074,-181"/>
<polygon fill="#000000" stroke="#000000" points="763.2074,-184.5001 773.2074,-181 763.2074,-177.5001 763.2074,-184.5001"/>
</g>
</g>
</svg>
